<?xml version="1.0" encoding="iso-8859-1"?>
<!-- Uploaded to: SVG Repo, www.svgrepo.com, Generator: SVG Repo Mixer Tools -->
<svg version="1.1" id="Layer_1" xmlns="http://www.w3.org/2000/svg" xmlns:xlink="http://www.w3.org/1999/xlink" 
	 viewBox="0 0 512 512" xml:space="preserve">
<g>
	<polygon style="fill:#FFFFFF;" points="278.112,280 256,291.056 256,268.944 	"/>
	<rect x="32" y="264" style="fill:#FFFFFF;" width="16" height="32"/>
	<path style="fill:#FFFFFF;" d="M480,416c0,13.232-10.768,24-24,24H183.792c5.08-6.704,8.208-14.96,8.208-24V312h57.888l64-32
		l-64-32H192V40c0-9-2.992-17.312-8.016-24H456c13.232,0,24,10.768,24,24V416z"/>
</g>
<rect x="56" y="256" style="fill:#F37053;" width="192" height="48"/>
<g>
	<path style="fill:#53B7E8;" d="M120,392v24c0,17.68,14.32,32,32,32s32-14.32,32-32v-24H120z"/>
	<path style="fill:#53B7E8;" d="M184,64V40c0-17.68-14.32-32-32-32s-32,14.32-32,32v24H184z"/>
	<rect x="216" y="120" style="fill:#53B7E8;" width="240" height="64"/>
</g>
<polygon style="fill:#F37053;" points="304,504 336,496 368,504 368,416 304,416 "/>
<path style="fill:#FFD768;" d="M336,336c-26.512,0-48,21.488-48,48s21.488,48,48,48s48-21.488,48-48S362.512,336,336,336z M336,400
	c-8.84,0-16-7.16-16-16s7.16-16,16-16s16,7.16,16,16S344.84,400,336,400z"/>
<g>
	<rect x="408" y="376" style="fill:#0C3847;" width="16" height="16"/>
	<rect x="248" y="376" style="fill:#0C3847;" width="16" height="16"/>
	<rect x="208" y="208" style="fill:#0C3847;" width="256" height="16"/>
	<rect x="288" y="64" style="fill:#0C3847;" width="96" height="16"/>
	<rect x="328" y="240" style="fill:#0C3847;" width="136" height="16"/>
	<rect x="328" y="272" style="fill:#0C3847;" width="136" height="16"/>
	<path style="fill:#0C3847;" d="M336,360c-13.232,0-24,10.768-24,24s10.768,24,24,24s24-10.768,24-24S349.232,360,336,360z M336,392
		c-4.408,0-8-3.584-8-8s3.592-8,8-8s8,3.584,8,8S340.408,392,336,392z"/>
	<path style="fill:#0C3847;" d="M208,192h256v-80H208V192z M224,128h224v48H224V128z"/>
</g>
<g>
	<rect x="312" y="144" style="fill:#FFFFFF;" width="48" height="16"/>
	<rect x="376" y="144" style="fill:#FFFFFF;" width="48" height="16"/>
	<rect x="248" y="144" style="fill:#FFFFFF;" width="48" height="16"/>
</g>
<path style="fill:#0C3847;" d="M456,0H152c-22.056,0-40,17.944-40,40v32h64v176H16v64h35.72l16,24H152v-16H76.28l-5.336-8H176v72
	h-64v32c0,22.056,17.944,40,40,40h144v56l40-10l40,10v-56h80c22.056,0,40-17.944,40-40V40C496,17.944,478.056,0,456,0z M128,56V40
	c0-13.232,10.768-24,24-24s24,10.768,24,24v16H128z M32,264h16v32H32V264z M64,296v-32h88v32H64z M168,264h72v32h-72V264z
	 M278.112,280L256,291.056v-22.112L278.112,280z M128,416v-16h48v16c0,13.232-10.768,24-24,24S128,429.232,128,416z M336,424
	c-22.056,0-40-17.944-40-40s17.944-40,40-40s40,17.944,40,40S358.056,424,336,424z M336,485.504l-24,6V434.52
	c7.288,3.472,15.4,5.48,24,5.48s16.712-2.008,24-5.48v56.984L336,485.504z M480,416c0,13.232-10.768,24-24,24h-80v-16.888
	c9.88-10.104,16-23.904,16-39.112c0-30.872-25.12-56-56-56s-56,25.128-56,56c0,15.216,6.12,29.016,16,39.112V440H183.792
	c5.08-6.704,8.208-14.96,8.208-24V312h57.888l64-32l-64-32H192V40c0-9-2.992-17.312-8.016-24H456c13.232,0,24,10.768,24,24V416z"/>
</svg>