<!DOCTYPE svg PUBLIC "-//W3C//DTD SVG 1.1//EN" "http://www.w3.org/Graphics/SVG/1.1/DTD/svg11.dtd">
<!-- Uploaded to: SVG Repo, www.svgrepo.com, Transformed by: SVG Repo Mixer Tools -->
<svg width="800px" height="800px" viewBox="0 0 1024 1024" class="icon" version="1.1" xmlns="http://www.w3.org/2000/svg" fill="#000000">
<g id="SVGRepo_bgCarrier" stroke-width="0"/>
<g id="SVGRepo_tracerCarrier" stroke-linecap="round" stroke-linejoin="round"/>
<g id="SVGRepo_iconCarrier">
<path d="M512 512m-480 0a480 480 0 1 0 960 0 480 480 0 1 0-960 0Z" fill="#F6F6F6"/>
<path d="M249.6 294.4c0-25.6 19.2-44.8 44.8-44.8h166.4c32 0 51.2 19.2 51.2 44.8v166.4c0 32-19.2 51.2-44.8 51.2H294.4c-25.6 0-44.8-19.2-44.8-44.8V294.4zM556.8 345.6c0-25.6 19.2-51.2 44.8-51.2h121.6c25.6 0 51.2 19.2 51.2 51.2v121.6c0 25.6-19.2 51.2-51.2 51.2H601.6c-25.6 0-44.8-25.6-44.8-51.2V345.6zM556.8 608c0-25.6 19.2-51.2 51.2-51.2h121.6c25.6 0 51.2 19.2 51.2 44.8v64l-108.8 108.8h-64c-25.6 0-44.8-19.2-44.8-51.2V608z" fill="#8969b0"/>
<path d="M665.6 716.8c0-25.6 19.2-44.8 44.8-44.8h64l-108.8 108.8v-64z" fill="#FFFFFF"/>
<path d="M294.4 601.6c0-25.6 19.2-51.2 51.2-51.2h121.6c25.6 6.4 44.8 25.6 44.8 51.2v121.6c0 25.6-19.2 51.2-51.2 51.2H339.2c-25.6 0-51.2-19.2-51.2-51.2V601.6z" fill="#8969b0"/>
<path d="M294.4 294.4h166.4V320H294.4zM294.4 345.6h96v25.6H294.4z" fill="#FFFFFF"/>
</g>
</svg>