<?xml version="1.0" encoding="iso-8859-1"?>
<!-- Uploaded to: SVG Repo, www.svgrepo.com, Generator: SVG Repo Mixer Tools -->
<svg version="1.1" id="Layer_1" xmlns="http://www.w3.org/2000/svg" xmlns:xlink="http://www.w3.org/1999/xlink" 
	 viewBox="0 0 392.663 392.663" xml:space="preserve">
<path style="fill:#FFFFFF;" d="M351.386,229.172V92.574H41.341v15.127h38.788c6.012,0,10.925,4.848,10.925,10.925
	c0,6.012-4.848,10.925-10.925,10.925H41.341v11.895h16.937c6.012,0,10.925,4.848,10.925,10.925c0,6.012-4.848,10.925-10.925,10.925
	H41.341v66.004c0,6.012,4.848,10.925,10.925,10.925h288.129C346.408,240.097,351.386,235.184,351.386,229.172z"/>
<path style="fill:#56ACE0;" d="M69.269,152.307c0,4.267-2.457,7.952-6.012,9.762v56.307H329.6V114.424H90.214
	c0.517,1.293,0.84,2.715,0.84,4.267c0,6.012-4.848,10.925-10.925,10.925H63.192v12.994
	C66.747,144.356,69.269,147.976,69.269,152.307z"/>
<rect x="21.883" y="308.299" style="fill:#FFC10D;" width="348.962" height="62.384"/>
<rect x="145.422" y="261.883" style="fill:#FFFFFF;" width="101.754" height="24.63"/>
<path style="fill:#FFC10D;" d="M351.386,32.711c0-6.012-4.849-10.925-10.925-10.925H52.267c-6.012,0-10.925,4.848-10.925,10.925
	v38.077h309.915V32.711H351.386z"/>
<g>
	<polygon style="fill:#194F82;" points="302.901,157.414 292.234,188.38 282.731,157.414 270.255,157.414 260.687,188.38 
		250.02,157.479 237.414,157.479 237.479,157.414 224.485,157.414 213.818,188.38 204.315,157.414 191.774,157.414 182.206,188.38 
		171.669,157.479 158.998,157.479 159.063,157.414 146.069,157.414 135.402,188.38 125.899,157.414 113.358,157.414 103.79,188.38 
		93.123,157.479 80.129,157.479 98.941,211.265 107.863,211.265 119.564,173.834 131.329,211.2 140.251,211.2 158.804,158.125 
		177.358,211.265 186.343,211.265 197.98,173.834 209.745,211.2 218.667,211.2 237.22,158.125 255.774,211.265 264.76,211.265 
		276.396,173.834 288.162,211.2 297.147,211.2 315.895,157.414 	"/>
	<path style="fill:#194F82;" d="M184.145,328.663H55.046c-6.012,0-10.925,4.848-10.925,10.925s4.848,10.925,10.925,10.925h129.099
		c6.012,0,10.925-4.848,10.925-10.925S190.158,328.663,184.145,328.663z"/>
	<path style="fill:#194F82;" d="M321.778,350.448h15.968c6.012,0,10.925-4.848,10.925-10.925c0-6.012-4.849-10.925-10.925-10.925
		h-15.968c-6.012,0-10.925,4.848-10.925,10.925C310.788,345.535,315.766,350.448,321.778,350.448z"/>
	<path style="fill:#194F82;" d="M237.802,339.523c0,6.012,4.848,10.925,10.925,10.925h15.968c6.012,0,10.925-4.848,10.925-10.925
		c0-6.012-4.848-10.925-10.925-10.925h-15.968C242.651,328.663,237.802,333.511,237.802,339.523z"/>
	<path style="fill:#194F82;" d="M317.059,34.974h-13.834c-6.012,0-10.925,4.848-10.925,10.925c0,6.012,4.848,10.925,10.925,10.925
		h13.834c6.012,0,10.925-4.848,10.925-10.925C327.984,39.887,323.071,34.974,317.059,34.974z"/>
	<path style="fill:#194F82;" d="M256.162,34.974h-13.834c-6.012,0-10.925,4.848-10.925,10.925c0,6.012,4.848,10.925,10.925,10.925
		h13.834c6.012,0,10.925-4.848,10.925-10.925C267.087,39.887,262.109,34.974,256.162,34.974z"/>
	<path style="fill:#194F82;" d="M381.77,286.513H269.091v-24.63h71.37c18.036,0,32.711-14.675,32.711-32.711V32.711
		C373.172,14.675,358.497,0,340.461,0H52.267C34.23,0,19.556,14.675,19.556,32.711v196.525c0,18.036,14.675,32.711,32.711,32.711
		h71.37v24.63H10.958c-6.012,0-10.925,4.848-10.925,10.925v84.234c0,6.012,4.848,10.925,10.925,10.925h370.747
		c6.012,0,10.925-4.848,10.925-10.925v-84.299C392.63,291.362,387.782,286.513,381.77,286.513z M41.341,32.711
		c0-6.012,4.848-10.925,10.925-10.925h288.129c6.012,0,10.925,4.848,10.925,10.925v38.077H41.341V32.711z M52.267,240.097
		c-6.012,0-10.925-4.848-10.925-10.925v-66.004h16.937c6.012,0,10.925-4.848,10.925-10.925c0-6.012-4.784-10.925-10.796-10.925
		H41.341v-11.83h38.788c6.012,0,10.925-4.848,10.925-10.925c0-6.012-4.848-10.925-10.925-10.925H41.341V92.509h309.915v136.727
		c0,6.012-4.848,10.925-10.925,10.925H52.267V240.097z M247.305,261.883v24.63H145.422v-24.63H247.305L247.305,261.883z
		 M370.844,370.747H21.883v-62.448h348.962L370.844,370.747L370.844,370.747z"/>
</g>
</svg>