<?xml version="1.0" ?><!-- Uploaded to: SVG Repo, www.svgrepo.com, Generator: SVG Repo Mixer Tools -->
<svg width="800px" height="800px" viewBox="0 0 2050 2050" data-name="Layer 2" id="Layer_2" xmlns="http://www.w3.org/2000/svg"><defs><style>.cls-1{fill:#f8881b;}.cls-2{fill:#f89a3e;}.cls-3{fill:#f08013;}.cls-4{fill:#67baeb;}.cls-5{fill:#46a1f8;}.cls-6{fill:#f4c23f;}.cls-7{fill:#fad564;}.cls-8{fill:#f4a93f;}.cls-9{fill:#de3226;}.cls-10{fill:#b11a31;}.cls-11{fill:#83d0fb;}.cls-12{fill:#f44533;}</style></defs><title/><path class="cls-1" d="M1084.6,461.6a146,146,0,0,1-92.4,184.6,144.5,144.5,0,0,1-28.5,6.4l61.9,185.7L826.7,904.5a143.8,143.8,0,0,0-5.6-69.7C795.7,758.3,713,717,636.5,742.4a146.1,146.1,0,0,0-55,243.8l-198.8,66.2L214.8,548.3a146.2,146.2,0,0,1,92.6-185L811.5,195.4l61.8,185.7a146.3,146.3,0,0,1,211.3,80.5Z"/><path class="cls-2" d="M1084.6,461.6a146,146,0,0,0-86.7-90.4,146.1,146.1,0,0,1-53.6,245.2,143.5,143.5,0,0,1-28.4,6.4l61.8,185.7L826.9,858.7a143.5,143.5,0,0,1-.2,45.8l198.9-66.2L963.7,652.6a144.5,144.5,0,0,0,28.5-6.4A146,146,0,0,0,1084.6,461.6Z"/><path class="cls-3" d="M303.5,604.1a146.2,146.2,0,0,1,92.6-185l441-146.9-25.6-76.8L307.4,363.3a146.2,146.2,0,0,0-92.6,185l167.9,504.1,63-21Z"/><path class="cls-4" d="M1842.7,1177H1636.9a146,146,0,1,1-278.9,60.3,144.7,144.7,0,0,1,13-60.3H1165.1V981.3a146,146,0,1,0,0-286.2V499.4h531.3a146.3,146.3,0,0,1,146.3,146.3Z"/><path class="cls-5" d="M1215.3,1012.8a186.5,186.5,0,0,0,36.1,3.6A181.6,181.6,0,0,0,1433,834.8c0-100.3-81.3-181.5-181.6-181.5a186.5,186.5,0,0,0-36.1,3.5V499.4h-50.2V695.1a145.9,145.9,0,1,1,0,286.2V1177h50.2Z"/><path class="cls-6" d="M958.6,1515.8a146,146,0,0,0,145.9,146,144.3,144.3,0,0,0,60.6-13.2v206H633.8a146.3,146.3,0,0,1-146.3-146.3V1177H697.1a146,146,0,1,1,258.4,0h209.6v206a144.3,144.3,0,0,0-60.6-13.2A146,146,0,0,0,958.6,1515.8Z"/><path class="cls-7" d="M955.5,1177a146,146,0,0,0-257.7-137.3,146.1,146.1,0,0,1,206.3,192h209.5v138.4a143.1,143.1,0,0,1,51.5,12.9V1177Z"/><path class="cls-8" d="M704.5,1789.4a146.3,146.3,0,0,1-146.3-146.3V1177H487.5v531.3a146.3,146.3,0,0,0,146.3,146.3h531.3v-65.2Z"/><path class="cls-9" d="M1842.7,1177v531.3a146.3,146.3,0,0,1-146.3,146.3H1165.1v-206a144.3,144.3,0,0,1-60.6,13.2,146,146,0,0,1,0-292,144.3,144.3,0,0,1,60.6,13.2V1177H1371a146,146,0,1,0,278.9,60.3,146.3,146.3,0,0,0-13-60.3Z"/><path class="cls-10" d="M1529.3,1381.1a150.9,150.9,0,0,0,25.4,2.2A146.1,146.1,0,0,0,1687.6,1177h-50.7a146.3,146.3,0,0,1,13,60.3C1649.9,1309.2,1597.8,1369,1529.3,1381.1Z"/><path class="cls-10" d="M1215.9,1383V1177h-50.8v193.2A144.6,144.6,0,0,1,1215.9,1383Z"/><path class="cls-10" d="M1009.3,1515.8A146,146,0,0,1,1129.9,1372a151.8,151.8,0,0,0-25.4-2.2,146,146,0,0,0,0,292,151.8,151.8,0,0,0,25.4-2.2C1061.4,1647.5,1009.3,1587.7,1009.3,1515.8Z"/><path class="cls-10" d="M1165.1,1661.4v193.2h50.8v-206A144.6,144.6,0,0,1,1165.1,1661.4Z"/><rect class="cls-11" height="329.42" rx="55.9" ry="55.9" width="111.8" x="1730.9" y="723"/><rect class="cls-12" height="277.54" rx="55.9" ry="55.9" width="111.8" x="1730.9" y="1438.9"/></svg>